<svg width="24" height="24" viewBox="0 0 24 24" fill="none" xmlns="http://www.w3.org/2000/svg">
<path d="M10.7419 16.3142C11.9397 16.3142 13.0622 15.9526 13.9964 15.3349L17.296 18.6421C17.5145 18.853 17.7932 18.9585 18.0946 18.9585C18.7199 18.9585 19.1794 18.4688 19.1794 17.8511C19.1794 17.5648 19.0815 17.2861 18.8705 17.0751L15.5935 13.783C16.2715 12.8187 16.6708 11.651 16.6708 10.3854C16.6708 7.1234 14.0039 4.45654 10.7419 4.45654C7.48744 4.45654 4.81305 7.1234 4.81305 10.3854C4.81305 13.6474 7.4799 16.3142 10.7419 16.3142ZM10.7419 14.7322C8.35379 14.7322 6.39508 12.7735 6.39508 10.3854C6.39508 7.99728 8.35379 6.03857 10.7419 6.03857C13.13 6.03857 15.0887 7.99728 15.0887 10.3854C15.0887 12.7735 13.13 14.7322 10.7419 14.7322Z" fill="#181818"/>
</svg>
